<mxfile host="app.diagrams.net" agent="Mozilla/5.0 (Windows NT 10.0; Win64; x64) AppleWebKit/537.36 (KHTML, like Gecko) Chrome/131.0.0.0 Safari/537.36" version="25.0.1">
  <diagram name="Página-1" id="EybIdvq-ZSmLcgGqUNoX">
    <mxGraphModel dx="1687" dy="980" grid="1" gridSize="10" guides="1" tooltips="1" connect="1" arrows="1" fold="1" page="1" pageScale="1" pageWidth="827" pageHeight="1169" math="0" shadow="0">
      <root>
        <mxCell id="0" />
        <mxCell id="1" parent="0" />
        <mxCell id="I1ASSPgnv77Yv3--6DFM-1" value="Operador" style="shape=umlActor;verticalLabelPosition=bottom;verticalAlign=top;html=1;outlineConnect=0;" vertex="1" parent="1">
          <mxGeometry x="220" y="110" width="50" height="90" as="geometry" />
        </mxCell>
        <mxCell id="I1ASSPgnv77Yv3--6DFM-3" value="Administrador" style="shape=umlActor;verticalLabelPosition=bottom;verticalAlign=top;html=1;outlineConnect=0;" vertex="1" parent="1">
          <mxGeometry x="220" y="340" width="50" height="90" as="geometry" />
        </mxCell>
        <mxCell id="I1ASSPgnv77Yv3--6DFM-4" value="Cadastrar produto" style="ellipse;whiteSpace=wrap;html=1;" vertex="1" parent="1">
          <mxGeometry x="486" y="50" width="190" height="50" as="geometry" />
        </mxCell>
        <mxCell id="I1ASSPgnv77Yv3--6DFM-5" value="Alterar produto" style="ellipse;whiteSpace=wrap;html=1;" vertex="1" parent="1">
          <mxGeometry x="486" y="110" width="190" height="50" as="geometry" />
        </mxCell>
        <mxCell id="I1ASSPgnv77Yv3--6DFM-6" value="Excluir produto" style="ellipse;whiteSpace=wrap;html=1;" vertex="1" parent="1">
          <mxGeometry x="486" y="170" width="190" height="50" as="geometry" />
        </mxCell>
        <mxCell id="I1ASSPgnv77Yv3--6DFM-7" value="Cadastrar usuário" style="ellipse;whiteSpace=wrap;html=1;" vertex="1" parent="1">
          <mxGeometry x="476" y="360" width="190" height="50" as="geometry" />
        </mxCell>
        <mxCell id="I1ASSPgnv77Yv3--6DFM-8" value="Alterar usuário" style="ellipse;whiteSpace=wrap;html=1;" vertex="1" parent="1">
          <mxGeometry x="476" y="420" width="190" height="50" as="geometry" />
        </mxCell>
        <mxCell id="I1ASSPgnv77Yv3--6DFM-9" value="Excluir usuário" style="ellipse;whiteSpace=wrap;html=1;" vertex="1" parent="1">
          <mxGeometry x="476" y="480" width="190" height="50" as="geometry" />
        </mxCell>
        <mxCell id="I1ASSPgnv77Yv3--6DFM-10" value="Cadastrar perfil de usuário" style="ellipse;whiteSpace=wrap;html=1;" vertex="1" parent="1">
          <mxGeometry x="476" y="540" width="196" height="50" as="geometry" />
        </mxCell>
        <mxCell id="I1ASSPgnv77Yv3--6DFM-11" value="Alterar perfil de&amp;nbsp;usuário" style="ellipse;whiteSpace=wrap;html=1;" vertex="1" parent="1">
          <mxGeometry x="476" y="600" width="200" height="50" as="geometry" />
        </mxCell>
        <mxCell id="I1ASSPgnv77Yv3--6DFM-12" value="Excluir perfil de&amp;nbsp;usuário" style="ellipse;whiteSpace=wrap;html=1;" vertex="1" parent="1">
          <mxGeometry x="476" y="659" width="200" height="51" as="geometry" />
        </mxCell>
        <mxCell id="I1ASSPgnv77Yv3--6DFM-15" value="" style="endArrow=none;html=1;rounded=0;entryX=0;entryY=0.5;entryDx=0;entryDy=0;" edge="1" parent="1" target="I1ASSPgnv77Yv3--6DFM-4">
          <mxGeometry width="50" height="50" relative="1" as="geometry">
            <mxPoint x="280" y="150" as="sourcePoint" />
            <mxPoint x="330" y="100" as="targetPoint" />
          </mxGeometry>
        </mxCell>
        <mxCell id="I1ASSPgnv77Yv3--6DFM-16" value="" style="endArrow=none;html=1;rounded=0;entryX=0.016;entryY=0.38;entryDx=0;entryDy=0;entryPerimeter=0;" edge="1" parent="1" target="I1ASSPgnv77Yv3--6DFM-5">
          <mxGeometry width="50" height="50" relative="1" as="geometry">
            <mxPoint x="280" y="150" as="sourcePoint" />
            <mxPoint x="500" y="85" as="targetPoint" />
          </mxGeometry>
        </mxCell>
        <mxCell id="I1ASSPgnv77Yv3--6DFM-17" value="" style="endArrow=none;html=1;rounded=0;entryX=0.074;entryY=0.2;entryDx=0;entryDy=0;entryPerimeter=0;" edge="1" parent="1" target="I1ASSPgnv77Yv3--6DFM-6">
          <mxGeometry width="50" height="50" relative="1" as="geometry">
            <mxPoint x="280" y="150" as="sourcePoint" />
            <mxPoint x="503" y="139" as="targetPoint" />
          </mxGeometry>
        </mxCell>
        <mxCell id="I1ASSPgnv77Yv3--6DFM-18" value="Lançar entrada de produto" style="ellipse;whiteSpace=wrap;html=1;" vertex="1" parent="1">
          <mxGeometry x="486" y="230" width="190" height="50" as="geometry" />
        </mxCell>
        <mxCell id="I1ASSPgnv77Yv3--6DFM-19" value="Lançar saída de produto" style="ellipse;whiteSpace=wrap;html=1;" vertex="1" parent="1">
          <mxGeometry x="486" y="290" width="190" height="50" as="geometry" />
        </mxCell>
        <mxCell id="I1ASSPgnv77Yv3--6DFM-20" value="" style="endArrow=none;html=1;rounded=0;entryX=0;entryY=0.5;entryDx=0;entryDy=0;" edge="1" parent="1" target="I1ASSPgnv77Yv3--6DFM-18">
          <mxGeometry width="50" height="50" relative="1" as="geometry">
            <mxPoint x="280" y="150" as="sourcePoint" />
            <mxPoint x="476" y="235" as="targetPoint" />
          </mxGeometry>
        </mxCell>
        <mxCell id="I1ASSPgnv77Yv3--6DFM-21" value="" style="endArrow=none;html=1;rounded=0;entryX=0.026;entryY=0.36;entryDx=0;entryDy=0;entryPerimeter=0;" edge="1" parent="1" target="I1ASSPgnv77Yv3--6DFM-19">
          <mxGeometry width="50" height="50" relative="1" as="geometry">
            <mxPoint x="280" y="150" as="sourcePoint" />
            <mxPoint x="496" y="290" as="targetPoint" />
          </mxGeometry>
        </mxCell>
        <mxCell id="I1ASSPgnv77Yv3--6DFM-23" value="" style="endArrow=none;html=1;rounded=0;entryX=0;entryY=0.5;entryDx=0;entryDy=0;exitX=0.021;exitY=0.64;exitDx=0;exitDy=0;exitPerimeter=0;" edge="1" parent="1" source="I1ASSPgnv77Yv3--6DFM-4">
          <mxGeometry width="50" height="50" relative="1" as="geometry">
            <mxPoint x="471" y="320" as="sourcePoint" />
            <mxPoint x="265" y="395" as="targetPoint" />
          </mxGeometry>
        </mxCell>
        <mxCell id="I1ASSPgnv77Yv3--6DFM-24" value="" style="endArrow=none;html=1;rounded=0;entryX=0.016;entryY=0.38;entryDx=0;entryDy=0;entryPerimeter=0;exitX=0.016;exitY=0.68;exitDx=0;exitDy=0;exitPerimeter=0;" edge="1" parent="1" source="I1ASSPgnv77Yv3--6DFM-5">
          <mxGeometry width="50" height="50" relative="1" as="geometry">
            <mxPoint x="480" y="150" as="sourcePoint" />
            <mxPoint x="265" y="395" as="targetPoint" />
          </mxGeometry>
        </mxCell>
        <mxCell id="I1ASSPgnv77Yv3--6DFM-25" value="" style="endArrow=none;html=1;rounded=0;entryX=0;entryY=0.5;entryDx=0;entryDy=0;exitX=0.037;exitY=0.7;exitDx=0;exitDy=0;exitPerimeter=0;" edge="1" parent="1" source="I1ASSPgnv77Yv3--6DFM-6">
          <mxGeometry width="50" height="50" relative="1" as="geometry">
            <mxPoint x="90" y="210" as="sourcePoint" />
            <mxPoint x="265" y="395" as="targetPoint" />
          </mxGeometry>
        </mxCell>
        <mxCell id="I1ASSPgnv77Yv3--6DFM-26" value="" style="endArrow=none;html=1;rounded=0;entryX=0;entryY=0.5;entryDx=0;entryDy=0;exitX=0;exitY=0;exitDx=0;exitDy=0;" edge="1" parent="1" source="I1ASSPgnv77Yv3--6DFM-7">
          <mxGeometry width="50" height="50" relative="1" as="geometry">
            <mxPoint x="471" y="500" as="sourcePoint" />
            <mxPoint x="265" y="395" as="targetPoint" />
          </mxGeometry>
        </mxCell>
        <mxCell id="I1ASSPgnv77Yv3--6DFM-27" value="" style="endArrow=none;html=1;rounded=0;entryX=0.026;entryY=0.36;entryDx=0;entryDy=0;entryPerimeter=0;exitX=0;exitY=0;exitDx=0;exitDy=0;" edge="1" parent="1" source="I1ASSPgnv77Yv3--6DFM-8">
          <mxGeometry width="50" height="50" relative="1" as="geometry">
            <mxPoint x="476" y="553" as="sourcePoint" />
            <mxPoint x="265" y="395" as="targetPoint" />
          </mxGeometry>
        </mxCell>
        <mxCell id="I1ASSPgnv77Yv3--6DFM-30" value="" style="endArrow=none;html=1;rounded=0;exitX=0;exitY=0.5;exitDx=0;exitDy=0;" edge="1" parent="1" source="I1ASSPgnv77Yv3--6DFM-9">
          <mxGeometry width="50" height="50" relative="1" as="geometry">
            <mxPoint x="399" y="600.5" as="sourcePoint" />
            <mxPoint x="265" y="394" as="targetPoint" />
          </mxGeometry>
        </mxCell>
        <mxCell id="I1ASSPgnv77Yv3--6DFM-31" value="" style="endArrow=none;html=1;rounded=0;exitX=0.071;exitY=0.2;exitDx=0;exitDy=0;exitPerimeter=0;" edge="1" parent="1" source="I1ASSPgnv77Yv3--6DFM-10">
          <mxGeometry width="50" height="50" relative="1" as="geometry">
            <mxPoint x="486" y="585" as="sourcePoint" />
            <mxPoint x="266" y="396" as="targetPoint" />
          </mxGeometry>
        </mxCell>
        <mxCell id="I1ASSPgnv77Yv3--6DFM-32" value="" style="endArrow=none;html=1;rounded=0;" edge="1" parent="1">
          <mxGeometry width="50" height="50" relative="1" as="geometry">
            <mxPoint x="488" y="613" as="sourcePoint" />
            <mxPoint x="265" y="394" as="targetPoint" />
          </mxGeometry>
        </mxCell>
        <mxCell id="I1ASSPgnv77Yv3--6DFM-33" value="" style="endArrow=none;html=1;rounded=0;" edge="1" parent="1">
          <mxGeometry width="50" height="50" relative="1" as="geometry">
            <mxPoint x="484" y="674" as="sourcePoint" />
            <mxPoint x="265" y="394" as="targetPoint" />
          </mxGeometry>
        </mxCell>
      </root>
    </mxGraphModel>
  </diagram>
</mxfile>
